<svg xmlns="http://www.w3.org/2000/svg" xmlns:xlink="http://www.w3.org/1999/xlink" width="500" zoomAndPan="magnify" viewBox="0 0 375 374.999991" height="500" preserveAspectRatio="xMidYMid meet" version="1.0"><defs><g/><clipPath id="2e78ade017"><path d="M 213.457031 107.15625 L 375 107.15625 L 375 231.578125 L 213.457031 231.578125 Z M 213.457031 107.15625 " clip-rule="nonzero"/></clipPath></defs><g clip-path="url(#2e78ade017)"><path fill="#000000" d="M 383.492188 141.203125 C 385.472656 140.929688 386.859375 140.867188 388.972656 140.6875 C 392.535156 140.386719 404.734375 142.78125 408.40625 144.769531 C 410.820312 146.078125 413.773438 147.511719 415.207031 149.945312 C 414.449219 151.464844 412.109375 152.96875 410.929688 154.492188 L 404.050781 162.734375 C 402.964844 164.117188 402.488281 165.34375 401.238281 166.542969 C 400.425781 167.320312 399.964844 167.785156 399.285156 168.679688 L 391.179688 180.113281 C 389.121094 182.765625 387.503906 185.492188 384.804688 188.859375 C 383.414062 190.59375 382.714844 192.453125 381.324219 194.203125 C 378.046875 198.335938 375.359375 202.707031 372.457031 207.078125 C 371.667969 208.265625 371.492188 208.320312 370.570312 209.292969 L 356.960938 230.34375 C 355.320312 230.34375 352.722656 229.652344 351.074219 229.289062 C 344.820312 227.914062 338.84375 228.722656 332.492188 229.800781 C 322.335938 231.523438 311.625 232.40625 301.675781 230.523438 C 297.871094 229.804688 293.191406 229.257812 289.398438 227.6875 C 288.453125 227.296875 288.378906 227.136719 287.378906 226.867188 L 282.90625 225.664062 C 272.40625 222.722656 270.246094 223.25 260.472656 222.289062 C 259.554688 222.199219 259.078125 222.160156 258.09375 222.148438 C 242.175781 222 223.765625 213.949219 216.152344 197.613281 C 211.84375 188.367188 212.039062 177.8125 221.625 167.335938 C 225.234375 163.386719 236.050781 157.40625 241.089844 155.300781 L 246.496094 152.828125 C 247.667969 152.222656 248.902344 151.742188 250.097656 151.074219 L 281.433594 134.53125 C 285.128906 133.285156 285.660156 132.371094 288.492188 131.199219 C 294.855469 128.5625 300.347656 125.640625 306.371094 122.621094 C 307.605469 122.003906 308.882812 121.523438 310.054688 120.945312 L 319.941406 115.082031 C 321.191406 114.144531 321.847656 113.765625 323.214844 112.996094 C 323.886719 112.613281 324.285156 112.519531 324.929688 112.207031 C 325.667969 111.847656 325.804688 111.65625 326.488281 111.230469 C 330.402344 108.789062 336.695312 105.878906 343.367188 107.753906 C 344.519531 108.078125 346.167969 108.589844 347.3125 109.160156 C 350.738281 110.867188 353.910156 112.910156 356.703125 115.515625 C 358.796875 117.46875 359.421875 119.90625 360.640625 122.300781 C 361.921875 124.828125 362.628906 127.722656 362.628906 130.714844 C 362.628906 133.925781 361.964844 136.347656 361.367188 138.910156 C 362.125 139.417969 362.722656 140.140625 363.71875 140.652344 C 364.585938 141.101562 365.988281 141.257812 367.03125 141.4375 C 368.464844 141.683594 372.875 142.0625 374.589844 142.0625 C 379.164062 142.0625 379.382812 141.777344 383.492188 141.203125 Z M 337.125 155.9375 C 338.984375 155.484375 340.945312 153.839844 342.375 152.679688 C 343.082031 152.105469 343.070312 151.980469 343.921875 151.390625 C 346.066406 149.914062 348.59375 148.257812 350.390625 146.519531 C 351.761719 145.1875 355.378906 142.242188 356.121094 140.90625 C 358.132812 137.300781 359.109375 138.890625 359.949219 133.710938 C 360.859375 128.085938 359.066406 125.585938 357.320312 120.898438 C 356.726562 119.308594 356.394531 118.65625 355.332031 117.519531 C 353.941406 116.035156 350.851562 113.503906 348.910156 112.605469 C 348.085938 112.222656 347.867188 112.015625 347.050781 111.632812 C 345.339844 110.828125 342.839844 109.589844 340.902344 109.589844 C 339.171875 109.589844 334.394531 109.417969 333.347656 110.851562 C 335.925781 110.652344 338.828125 110.78125 341.449219 111.25 C 343.445312 111.605469 346.65625 112.269531 347.199219 114.320312 C 346.203125 114.796875 346.460938 114.75 345.445312 114.214844 C 342.011719 112.40625 338.890625 112.382812 334.917969 112.429688 C 332.613281 112.457031 332.8125 112.601562 331.144531 111.480469 L 322.136719 116.019531 C 317.507812 119.496094 317.445312 118.84375 313.765625 121.195312 C 311.808594 122.441406 310.347656 123.347656 307.914062 124.164062 C 304.589844 125.273438 299.734375 128.742188 296.0625 130.265625 C 294.773438 130.800781 293.980469 131.171875 292.742188 131.664062 L 235.746094 159.71875 C 236.441406 160.683594 235.671875 160.117188 237.453125 160.105469 C 238.9375 160.089844 242.675781 161.058594 244.039062 161.507812 C 259.203125 165.710938 272.066406 182.707031 263.105469 201 C 262.433594 202.101562 261.523438 203.402344 260.902344 204.472656 C 260.128906 205.800781 259.4375 206.570312 258.730469 207.640625 C 259.988281 207.457031 284.003906 193.066406 288.492188 189.84375 C 290.199219 188.617188 291.179688 187.582031 292.984375 186.457031 L 302.378906 180.097656 C 303.035156 179.636719 303.046875 179.582031 303.664062 179.175781 L 314.324219 171.882812 C 315.203125 171.214844 315.632812 170.914062 316.421875 170.199219 C 318.710938 168.136719 325.566406 164.265625 328.511719 162.136719 C 329.539062 161.394531 334.96875 157.882812 335.277344 157.265625 C 335.695312 156.421875 335.230469 152.683594 336.808594 151.523438 C 338.554688 152.691406 337.179688 153.53125 337.125 155.9375 Z M 371.128906 144.269531 C 369.566406 144.269531 366.054688 143.839844 364.519531 143.324219 C 363.203125 142.878906 362.824219 143.203125 361.601562 142.457031 C 360.613281 141.855469 360.566406 141.617188 359.480469 141.191406 C 358.609375 141.824219 358.386719 142.195312 357.90625 143.324219 C 361.058594 145.441406 365.503906 145.847656 369.554688 145.847656 C 369.144531 147.378906 368.039062 146.730469 366.078125 146.804688 C 364.417969 146.867188 364.351562 146.984375 362.375 146.742188 C 359.125 146.339844 358.464844 145.957031 355.703125 144.902344 C 353.867188 147.40625 344.441406 154.28125 341.707031 156.113281 L 334.03125 161.035156 C 332.777344 161.859375 331.652344 162.765625 330.378906 163.683594 L 326.734375 166.339844 C 327.992188 167.0625 329.582031 167.109375 331.0625 167.367188 C 332.238281 167.574219 334.300781 167.816406 334.554688 169.175781 C 333.328125 169.902344 326.28125 167.230469 323.8125 168.433594 C 323.226562 168.71875 322.324219 169.46875 321.796875 169.90625 C 320.234375 171.195312 317.402344 172.324219 316.34375 173.90625 C 319.105469 175.234375 323.910156 175.453125 327.082031 176.082031 C 328.953125 176.453125 329.40625 175.976562 330.199219 177.058594 C 327.914062 178.34375 318.8125 176.34375 316.917969 175.855469 C 316.042969 175.632812 314.476562 175.257812 313.890625 175.390625 C 313.050781 175.578125 312.96875 176.066406 312.371094 176.539062 L 307.84375 179.582031 C 306.460938 180.566406 305.21875 181.558594 303.667969 182.648438 C 299.925781 185.273438 295.140625 188.804688 291.15625 190.933594 C 289.375 191.882812 288.480469 192.90625 286.871094 193.898438 C 283.890625 195.738281 281.492188 197.480469 278.707031 199.582031 C 277.976562 200.085938 277.402344 200.597656 276.722656 201.066406 C 273.09375 203.570312 257.5 211.78125 256.839844 212.6875 C 258.648438 212.726562 260.339844 213.480469 261.910156 213.492188 C 263.640625 213.503906 264.800781 213.46875 266.910156 213.636719 C 269.414062 213.835938 269.953125 215.976562 268.03125 215.734375 C 267.496094 215.667969 267.488281 215.480469 266.828125 215.320312 C 263.464844 214.5 260.722656 215.894531 256.941406 214.472656 C 255.839844 214.058594 255.695312 214.367188 255.582031 213 C 254.605469 213.417969 254.183594 213.738281 253.273438 214.160156 C 249.449219 215.933594 249.96875 215.816406 245.820312 216.785156 C 246.152344 217.007812 245.695312 216.882812 246.667969 217.191406 C 247.234375 217.375 247 217.289062 247.714844 217.398438 C 250.121094 217.773438 251.890625 218.292969 254.320312 218.363281 C 257.777344 218.46875 278.175781 221.164062 281.167969 221.746094 C 287.367188 222.949219 297.128906 227.542969 300.304688 227.804688 L 309.53125 228.605469 C 310.644531 228.664062 310.21875 228.433594 311.523438 228.539062 C 317.207031 229.007812 324.066406 228.578125 329.632812 227.25 C 331.96875 226.695312 333.40625 227.128906 335.789062 226.796875 C 336.9375 226.636719 340.03125 225.929688 341.535156 225.929688 C 348.351562 225.929688 345.152344 225.816406 351.121094 226.734375 C 356 227.488281 355.386719 228.546875 358.320312 223.820312 L 362.3125 217.414062 C 365.710938 212.335938 369.441406 207.824219 372.769531 202.667969 C 373.484375 201.558594 373.835938 201.363281 374.535156 200.332031 C 376.789062 197.015625 379.28125 193.859375 381.355469 190.441406 C 381.96875 189.425781 382.335938 188.859375 383.019531 188.015625 L 386.492188 182.984375 C 387.730469 181.171875 388.75 179.917969 389.894531 178.195312 C 391.902344 175.164062 396.59375 168.070312 398.757812 165.949219 C 400.125 164.613281 401.179688 162.871094 402.339844 161.339844 C 403.0625 160.382812 403.554688 159.984375 404.230469 159.128906 L 411.742188 149.945312 C 410.765625 148.484375 408.980469 147.9375 407.335938 147.105469 C 405.871094 146.367188 404.199219 145.554688 402.324219 145.1875 C 399.800781 144.695312 392.933594 143.007812 390.648438 143.007812 C 385.679688 143.007812 381.589844 144.269531 378.371094 144.269531 Z M 240.152344 164.449219 C 239.707031 163.625 239.828125 163.753906 238.894531 163.503906 C 239.175781 164.34375 238.917969 164.265625 240.152344 164.449219 Z M 244.5625 166.339844 C 243.867188 165.027344 243.652344 164.488281 242.671875 164.132812 C 242.824219 164.710938 243.011719 165.109375 243.402344 165.609375 C 243.996094 166.359375 243.773438 166.128906 244.5625 166.339844 Z M 251.171875 168.230469 C 249.417969 167.300781 248.796875 166.257812 246.449219 165.710938 C 246.761719 166.175781 247.398438 167.28125 247.707031 167.628906 C 248.726562 168.78125 247.996094 167.878906 249.285156 168.230469 C 249.421875 170.625 249.402344 170.25 251.109375 171.4375 C 257.496094 175.886719 255.578125 176.785156 258.097656 178.636719 C 256.546875 171.972656 256.007812 172.386719 250.542969 169.492188 C 251.089844 167.976562 250.625 169.746094 251.171875 168.230469 Z M 238.894531 167.917969 C 238.523438 167.421875 237.992188 167.195312 237.148438 167.457031 C 237.882812 168.15625 237.367188 167.917969 238.894531 167.917969 Z M 231.652344 167.285156 C 231.78125 167.410156 231.390625 167.703125 232.308594 167.75 C 232.898438 167.78125 232.835938 167.371094 232.910156 167.285156 Z M 225.984375 170.753906 C 227.382812 170.871094 226.628906 171.066406 227.621094 170.8125 C 231.121094 169.90625 230.601562 168.382812 230.878906 167.746094 C 229.957031 167.816406 230.542969 167.839844 229.539062 168.300781 C 227.695312 169.152344 228.035156 168.570312 226.582031 170.089844 Z M 234.824219 168.207031 L 235.429688 168.546875 C 235.253906 168.078125 235.375 167.886719 234.824219 168.207031 Z M 234.824219 168.207031 C 234.03125 168.464844 234.328125 167.890625 234.289062 168.742188 C 235.296875 168.351562 234.375 168.753906 234.824219 168.207031 Z M 243.933594 169.492188 C 243.5625 169 243.378906 169.027344 242.671875 168.863281 C 243.382812 169.832031 242.46875 169.371094 243.933594 169.492188 Z M 240.359375 170.375 C 240.332031 170.652344 240.90625 171.117188 240.785156 170.4375 C 240.636719 169.632812 240.367188 170.308594 240.359375 170.375 Z M 221.261719 171.382812 C 222.066406 170.847656 222.246094 170.84375 222.523438 169.808594 C 221.71875 170.347656 221.539062 170.347656 221.261719 171.382812 Z M 224.777344 173.328125 C 225.949219 172.265625 225.347656 172.085938 225.984375 170.753906 L 225.355469 170.753906 C 225.242188 172.332031 224.839844 171.789062 224.777344 173.328125 Z M 248.339844 172.644531 C 248.011719 171.367188 248.296875 171.710938 247.394531 171.382812 C 247.953125 172.445312 247.421875 171.972656 248.339844 172.644531 Z M 221.261719 171.382812 C 220.492188 171.949219 220.585938 171.8125 220.316406 172.960938 C 221.089844 172.394531 220.996094 172.53125 221.261719 171.382812 Z M 251.804688 175.796875 C 251.089844 174.453125 250.664062 173.078125 248.652344 172.960938 C 249.144531 173.695312 249.5 173.953125 250.148438 174.617188 C 250.890625 175.375 250.757812 175.519531 251.804688 175.796875 Z M 247.394531 180.84375 C 247.175781 179.898438 244.671875 175.734375 242.660156 174.550781 L 240.46875 173.277344 L 243.113281 177.875 C 243.730469 178.5625 244.539062 178.859375 245.40625 179.359375 C 246.519531 180.003906 246.507812 180.25 247.394531 180.84375 Z M 229.207031 173.660156 C 229.800781 173.027344 229.023438 173.0625 228.503906 172.960938 C 228.644531 173.488281 228.695312 174.207031 229.207031 173.660156 Z M 231.96875 174.539062 C 233.023438 173.976562 232.554688 174.511719 233.226562 173.589844 C 231.949219 173.890625 232.277344 173.675781 231.96875 174.539062 Z M 224.777344 173.328125 C 224.324219 173.566406 224.617188 172.976562 224.097656 173.90625 C 224.835938 173.71875 224.519531 174.023438 224.777344 173.328125 Z M 238.578125 173.277344 C 237.613281 173.519531 237.429688 173.785156 236.691406 174.222656 C 237.59375 175.574219 237.136719 175.65625 237.910156 176.164062 C 238.28125 176.40625 240.027344 176.707031 240.46875 176.746094 Z M 226.96875 175.25 C 227.210938 174.597656 227.195312 175.390625 226.886719 174.851562 C 226.207031 174.589844 227.214844 174.59375 225.429688 176.113281 C 225.519531 176.875 225.480469 176.578125 225.671875 177.375 C 225.714844 177.3125 225.765625 177.222656 225.789062 177.179688 Z M 231.339844 177.691406 C 231.652344 177.011719 231.65625 176.984375 231.269531 176.199219 C 230.992188 175.628906 230.84375 175.042969 230.183594 175.28125 C 229.238281 175.625 230.800781 177.328125 231.339844 177.691406 Z M 219.371094 178.320312 C 220.40625 177.5625 219.675781 178.007812 220.378906 176.804688 C 220.683594 176.28125 220.960938 175.9375 221.261719 175.484375 C 219.65625 175.859375 219.371094 176.351562 219.371094 178.320312 Z M 233.226562 176.429688 C 234.03125 176.761719 235.039062 176.453125 235.746094 176.113281 C 235.238281 175.171875 234.707031 174.765625 233.71875 175.660156 C 233.203125 176.125 233.476562 175.734375 233.226562 176.429688 Z M 251.488281 184.625 C 251.433594 183.703125 251.273438 183.175781 251.054688 182.226562 C 250.769531 180.984375 251.003906 181.339844 250.351562 180.40625 C 250.335938 180.390625 249.945312 179.902344 249.933594 179.882812 C 249.894531 179.832031 249.839844 179.757812 249.796875 179.703125 C 249.753906 179.652344 249.703125 179.574219 249.660156 179.523438 L 247.710938 177.691406 C 248.015625 179 248.347656 179.242188 249.007812 180.167969 C 251.757812 184.027344 248.699219 182.875 249.894531 184.285156 C 250.652344 185.179688 249.46875 184.199219 251.488281 184.625 Z M 220.632812 178.636719 C 221.574219 178.410156 221.332031 178.609375 221.507812 177.621094 Z M 229.765625 179.898438 C 229.648438 178.519531 229.015625 177.671875 228.1875 176.765625 C 227.105469 178.351562 227.191406 179.039062 228.1875 180.527344 C 229.355469 180.214844 228.597656 180.210938 229.765625 179.898438 Z M 243.617188 181.789062 C 242.59375 180.257812 241.527344 179.109375 239.253906 178.890625 C 239.828125 179.839844 242.710938 181.546875 243.617188 181.789062 Z M 226.613281 182.734375 C 226.613281 182.710938 226.089844 181.605469 226.027344 181.433594 C 225.546875 180.128906 225.421875 179.089844 224.097656 178.003906 C 223.066406 179.949219 222.78125 180.71875 224.371094 183.394531 C 224.546875 183.691406 224.507812 183.671875 224.683594 183.953125 C 224.761719 182.375 224.519531 182.773438 224.410156 181.472656 L 225.039062 181.472656 C 225.039062 183.070312 225.253906 183.09375 225.355469 184.3125 C 226.179688 184.089844 226.613281 183.703125 226.613281 182.734375 Z M 255.582031 183.050781 C 255.433594 182.429688 255.480469 182.453125 255.175781 181.878906 C 254.859375 181.28125 254.835938 181.386719 254.636719 181.160156 C 254.738281 182.417969 254.824219 182.496094 255.582031 183.050781 Z M 259.671875 191.5625 C 259.671875 190.238281 260.542969 190.722656 260.472656 189.191406 C 260.363281 186.832031 259.40625 183.523438 257.46875 182.105469 C 258.335938 187.5 260.21875 185.609375 258.097656 194.714844 C 258.914062 194.394531 259.246094 194.15625 259.617188 193.371094 C 260.3125 191.886719 259.671875 192.695312 259.671875 191.5625 Z M 230.949219 183.34375 C 231.449219 182.972656 231.476562 182.757812 231.652344 182.105469 C 230.925781 181.292969 229.523438 182.417969 229.898438 183.28125 C 230.230469 184.035156 230.570312 183.628906 230.949219 183.34375 Z M 236.210938 183.839844 C 235.863281 183.332031 236.234375 183.691406 235.835938 183.269531 C 235.832031 183.269531 235.371094 182.046875 234.171875 183.050781 L 236.058594 185.894531 C 236.097656 185.949219 236.152344 186.027344 236.191406 186.082031 L 240.152344 191.246094 C 240.839844 190.90625 240.265625 191.152344 241.097656 190.933594 Z M 220.316406 181.789062 C 220.316406 180.59375 219.757812 179.78125 219.058594 179.265625 C 219.058594 182.097656 216.980469 184.511719 218.796875 184.074219 L 220.316406 183.363281 Z M 244.417969 186.058594 C 243.824219 184.902344 244.121094 184.429688 242.671875 183.996094 C 242.9375 185.132812 243.230469 185.984375 244.417969 186.058594 Z M 241.726562 189.039062 C 242.65625 188.371094 242.441406 189.070312 241.878906 187.660156 C 241.601562 186.960938 241.574219 186.65625 241.171875 186.128906 C 240.988281 185.886719 240.765625 185.710938 240.535156 185.507812 C 240.484375 185.464844 240.40625 185.414062 240.355469 185.371094 C 240.304688 185.328125 240.230469 185.273438 240.179688 185.230469 C 240.128906 185.1875 240.058594 185.125 240.007812 185.085938 L 238.578125 183.996094 C 238.882812 185.292969 240.121094 186.578125 241.054688 187.824219 C 241.648438 188.617188 241.460938 188.046875 241.726562 189.039062 Z M 238.261719 191.878906 C 237.269531 189.996094 235.375 188.003906 233.953125 185.765625 C 233.167969 184.527344 233.304688 184.628906 231.96875 184.941406 C 231.96875 187.34375 232.769531 188.304688 233.75 189.777344 C 234.539062 190.964844 236.988281 191.582031 238.261719 191.878906 Z M 229.304688 191.101562 C 228.933594 190.246094 229.316406 189.390625 228.933594 188.296875 C 228.578125 187.285156 228.160156 187.117188 227.875 185.886719 L 227.246094 185.886719 C 227.042969 186.679688 227.203125 186.449219 226.613281 187.046875 C 226.941406 187.855469 228.441406 190.988281 229.304688 191.101562 Z M 224.367188 187.148438 C 224.199219 186.769531 224.003906 186.246094 223.804688 185.867188 C 223.0625 184.46875 223.835938 185.304688 222.835938 184.941406 C 222.835938 187.132812 222.539062 187.023438 223.464844 188.410156 Z M 220.003906 189.984375 C 219.214844 187.761719 220.457031 187.15625 218.753906 185.574219 L 218.203125 189.265625 C 218.863281 189.753906 219.074219 189.769531 220.003906 189.984375 Z M 248.652344 189.039062 C 248.652344 188.460938 248.351562 189.066406 247.488281 187.382812 L 246.746094 186.21875 L 246.136719 190.300781 C 247.203125 190.925781 246.410156 190.894531 247.710938 191.246094 C 247.761719 191.195312 247.84375 191.128906 247.871094 191.09375 L 248.164062 190.753906 C 248.820312 189.761719 247.851562 191.609375 248.394531 190.355469 C 248.574219 189.9375 248.652344 189.75 248.652344 189.039062 Z M 232.597656 191.246094 C 232.570312 190.367188 232.488281 190.664062 231.96875 190.300781 C 232.207031 191.195312 231.902344 190.761719 232.597656 191.246094 Z M 225.460938 189.496094 L 225.355469 190.617188 C 225.324219 190.894531 230.144531 198.328125 231.96875 198.8125 Z M 249.285156 193.769531 C 249.355469 192.917969 249.429688 192.910156 249.597656 192.191406 C 248.953125 192.785156 248.90625 192.761719 248.652344 193.769531 Z M 244.5625 193.769531 C 245.71875 193.460938 245.550781 193.574219 245.820312 192.40625 C 245.21875 192.71875 245.472656 192.53125 245.054688 193 C 244.832031 193.253906 244.667969 193.609375 244.5625 193.769531 Z M 254.007812 195.03125 C 255.597656 193.195312 255.265625 193.125 255.265625 190.300781 L 254.953125 190.300781 C 254.953125 192.300781 254.085938 191.535156 254.007812 195.03125 Z M 221.578125 198.8125 C 221.578125 197.300781 221.128906 195.902344 220.53125 194.8125 C 220.070312 193.976562 218.945312 192.617188 218.429688 192.191406 C 218.457031 193.460938 219.214844 195.132812 219.691406 195.980469 C 220.21875 196.910156 220.851562 198.28125 221.578125 198.8125 Z M 251.488281 193.453125 C 251.488281 194.402344 250.800781 195.488281 250.542969 196.605469 C 251.371094 196 251.804688 194.605469 251.804688 193.453125 Z M 231.339844 194.398438 C 232.320312 195.871094 236.324219 198.597656 238.261719 199.128906 Z M 244.5625 195.976562 C 244.8125 197.054688 245.105469 197.523438 245.820312 198.183594 C 247.1875 197.257812 247.488281 196.617188 248.339844 195.347656 C 246.507812 194.246094 246.882812 194.746094 244.5625 195.976562 Z M 243.933594 199.128906 C 243.378906 198.304688 243.148438 197.824219 242.679688 197.0625 L 238.578125 197.238281 C 238.636719 197.285156 238.71875 197.351562 238.753906 197.382812 L 241.257812 198.976562 C 242.640625 199.730469 242.367188 199.878906 243.933594 199.128906 Z M 251.253906 202.679688 C 250.714844 203.113281 249.597656 204.027344 249.597656 204.804688 C 249.597656 205.976562 251.527344 205.382812 253.324219 203.175781 C 253.824219 202.5625 253.828125 202.691406 254.316406 202.277344 C 254.945312 201.753906 255.6875 200.828125 256.113281 199.980469 C 256.488281 199.238281 257.082031 197.785156 257.15625 196.921875 C 255.984375 198.269531 255.328125 199.601562 253.480469 201.125 C 252.910156 201.589844 253.011719 201.578125 252.417969 201.953125 C 251.847656 202.316406 251.84375 202.207031 251.253906 202.679688 Z M 249.597656 198.183594 C 250.355469 197.730469 250.023438 198.101562 250.226562 197.238281 C 249.558594 197.730469 249.820312 197.261719 249.597656 198.183594 Z M 248.96875 199.128906 C 249.121094 198.308594 248.660156 198.929688 248.546875 199.191406 C 248.277344 199.816406 248.902344 199.488281 248.96875 199.128906 Z M 221.578125 198.8125 L 224.574219 203.382812 C 227.050781 205.542969 227.5625 205.636719 229.066406 206.777344 L 230.351562 207.601562 C 229.308594 206.078125 227.707031 204.054688 226.167969 203.042969 C 224.65625 202.046875 221.632812 198.855469 221.578125 198.8125 Z M 235.117188 199.445312 L 235.117188 200.074219 L 236.375 200.074219 C 236.007812 199.582031 235.820312 199.609375 235.117188 199.445312 Z M 231.652344 202.28125 C 231.363281 201.191406 230.84375 200.707031 229.59375 200.847656 C 230.339844 201.507812 230.394531 201.945312 231.652344 202.28125 Z M 231.652344 202.28125 L 232.28125 202.914062 C 232.078125 202.140625 232.421875 202.488281 231.652344 202.28125 Z M 246.449219 203.226562 C 244.976562 203.136719 244.289062 202.46875 242.042969 202.28125 C 242.371094 203.695312 242.667969 203.292969 242.988281 204.488281 C 245.148438 204.140625 245.90625 204.289062 246.449219 203.226562 Z M 253.0625 209.53125 L 255.605469 207.03125 C 256.519531 206.136719 257.488281 204.816406 257.785156 203.542969 C 256.609375 203.859375 257.066406 203.808594 256.339844 204.933594 C 255.878906 205.648438 255.78125 205.757812 255.199219 206.3125 C 254.65625 206.828125 254.25 207.105469 253.558594 207.511719 C 252.511719 208.128906 252.761719 207.703125 252.050781 208.65625 Z M 240.785156 205.121094 C 240.617188 203.144531 239.484375 202.324219 237.320312 202.328125 C 236.855469 203.089844 237.179688 202.773438 236.996094 203.226562 C 236.351562 204.804688 235.054688 204.117188 236.476562 204.660156 C 238.023438 205.25 236.46875 204.328125 238.164062 204.605469 C 239.972656 204.902344 237.308594 205.121094 240.785156 205.121094 Z M 244.5625 207.640625 C 246.128906 207.511719 247.609375 207.058594 248.339844 206.066406 C 247.886719 205.550781 245.535156 206.46875 244.5625 206.695312 Z M 235.746094 209.53125 C 235.746094 208.726562 236.9375 209.25 236.246094 208.144531 C 236.214844 208.097656 236.152344 208.015625 236.113281 207.96875 C 235.152344 206.757812 234.492188 207.222656 233.019531 206.589844 C 232.101562 206.191406 232.492188 206.160156 231.339844 206.066406 C 232.929688 208.445312 233.296875 208.578125 234.800781 211.425781 C 236.476562 211.425781 236.5625 211.710938 237.949219 211.738281 C 237.117188 210.496094 237.316406 211.21875 235.746094 210.164062 Z M 239.207031 208.585938 C 241.164062 208.585938 242.011719 209.003906 242.671875 207.640625 C 241.898438 206.699219 240.304688 208.15625 238.578125 207.328125 C 238.96875 208.558594 238.65625 207.417969 239.207031 208.585938 Z M 249.914062 209.21875 C 248.191406 209.363281 247.984375 210.035156 246.449219 210.164062 C 246.605469 212.046875 246.949219 210.703125 247.394531 212.371094 C 249.441406 212.199219 249.304688 211.265625 251.171875 211.109375 C 250.746094 210.472656 250.339844 209.855469 249.914062 209.21875 Z M 342.792969 129.136719 C 342.425781 129.128906 342.515625 129.167969 342.226562 129.074219 C 340.777344 128.59375 340.292969 126.726562 338.699219 126.300781 C 338.292969 127.828125 334.835938 128.789062 333.347656 129.136719 L 333.347656 129.769531 C 336.09375 130.410156 337.347656 133.902344 338.511719 136.253906 C 338.972656 137.183594 339.253906 138.175781 339.957031 138.910156 C 340.703125 138.410156 341.101562 137.90625 341.847656 137.335938 C 345.484375 134.542969 342.449219 134.8125 342.164062 131.34375 C 344.03125 131.386719 344.179688 131.769531 344.726562 133.191406 C 345.550781 135.351562 345.488281 134.304688 347.199219 135.128906 C 346.75 136.367188 347.152344 135.164062 346.257812 136.386719 C 347.097656 140.011719 346.847656 139.230469 349.140625 139.121094 C 352.710938 138.949219 348.746094 131.738281 350.898438 132.046875 C 352.25 132.238281 352.308594 135.601562 352.105469 136.933594 C 354.558594 136.609375 351.914062 132.652344 354.441406 131.976562 C 355.316406 132.601562 355.085938 133.597656 355.703125 134.496094 C 356.851562 133.40625 356.015625 131.246094 356.015625 129.769531 C 356.015625 128.5625 355.917969 129.652344 356.332031 128.820312 C 359.089844 129.128906 358.914062 135.210938 357.535156 136.976562 C 356.679688 138.074219 356.472656 137.875 355.070312 137.648438 C 354.796875 139.675781 354.132812 141.53125 352.867188 142.378906 C 352.195312 142.164062 352.019531 141.777344 351.609375 141.265625 C 351.484375 142.238281 351.53125 143.90625 350.238281 143.25 C 349.417969 142.835938 350.035156 141.410156 350.035156 140.488281 C 348.492188 142.261719 348.964844 146.78125 346.570312 147.421875 C 345.886719 145.992188 346.886719 145.078125 346.886719 143.007812 C 344.914062 143.171875 345.367188 144.257812 344.976562 146.140625 C 344.75 147.246094 343.824219 151.652344 341.960938 150.765625 C 340.792969 150.207031 343.359375 148.101562 343.421875 145.214844 C 340.246094 145.957031 341.78125 149.183594 340.015625 151.296875 C 338.371094 153.257812 338.152344 151.652344 339 149.617188 C 339.292969 148.910156 339.335938 148.378906 339.644531 147.738281 C 338.234375 148.066406 335.277344 149.804688 334.300781 150.894531 C 333.652344 151.617188 333.617188 152.699219 333.40625 153.5625 C 333.074219 154.929688 332.714844 155.628906 332.089844 156.566406 C 331.5625 156.257812 331.261719 155.992188 330.828125 155.621094 C 329.378906 157.605469 327.96875 157.230469 327.050781 160.664062 C 325.835938 160.5625 326.035156 160.617188 325.621094 159.550781 C 324.257812 160.59375 322.824219 161.53125 321.414062 162.589844 C 320.363281 163.378906 320.410156 163.488281 319.890625 164.84375 C 319.476562 165.921875 319.367188 166.554688 319.007812 167.601562 C 317.246094 166.691406 318.191406 167.078125 318.234375 165.078125 L 316.128906 166.75 C 315.6875 167.136719 315.566406 167.296875 315.132812 167.648438 C 313.234375 169.175781 313.503906 168.773438 312.496094 171.011719 C 312.304688 171.433594 312.027344 171.898438 311.792969 172.183594 C 311.0625 173.070312 311.679688 172.851562 310.363281 172.960938 C 310.144531 172.039062 310.402344 172.507812 309.734375 172.015625 C 308.023438 173.160156 306.410156 174.734375 304.589844 175.699219 C 302.347656 176.886719 301.125 178.253906 298.542969 178.148438 C 298.183594 179.269531 297.800781 179.835938 297.496094 180.882812 C 297.007812 182.558594 297.535156 182.910156 295.878906 183.050781 C 295.878906 180.042969 297.222656 178.289062 297.453125 175.484375 L 296.8125 176.101562 C 294.113281 178.605469 293.976562 178.292969 291.023438 180.082031 C 290.324219 180.507812 289.585938 180.742188 289.175781 181.378906 L 288.324219 183.996094 L 286.75 183.996094 L 286.75 182.734375 C 286.238281 182.863281 284.679688 183.65625 284.238281 184.003906 C 283.195312 184.832031 283.792969 185.605469 282.972656 186.832031 C 281.882812 186.542969 282.003906 186.664062 281.710938 185.574219 L 276.675781 188.410156 L 276.675781 191.878906 L 274.785156 192.191406 L 274.785156 193.769531 L 284.234375 188.097656 C 285.738281 187.09375 287.058594 185.910156 288.578125 184.890625 C 289.984375 183.941406 291.71875 182.140625 293.363281 182.105469 C 293.332031 183.429688 293.25 183.339844 292.433594 184.007812 L 272.097656 197.054688 C 269.304688 198.425781 263.785156 204.460938 265.027344 199.128906 C 266.628906 198.359375 267.722656 198.710938 268.589844 196.605469 C 267.578125 196.476562 267.757812 196.496094 267.230469 195.976562 C 267.425781 193.605469 270.503906 188.550781 269.804688 186.746094 C 269.207031 185.207031 269.269531 187.390625 269.171875 185.300781 C 269.132812 184.484375 269.433594 184.6875 269.433594 183.363281 C 269.433594 181.984375 266.945312 178.710938 270.378906 178.636719 L 270.742188 180.515625 L 272.582031 179.265625 C 271.964844 176.625 271.3125 175.570312 270.378906 173.277344 C 268.585938 173.433594 268.355469 174.492188 266.285156 174.539062 C 266.339844 172.042969 268.917969 171.957031 271.957031 170.441406 C 272.757812 170.042969 273.285156 169.683594 274.328125 169.347656 C 273.699219 168.128906 273.570312 167.917969 274.46875 166.96875 C 276.136719 167.414062 275.089844 167.695312 276.417969 168.503906 C 277.28125 167.933594 277.734375 167.382812 278.878906 167.285156 C 278.804688 168.875 279.035156 168.0625 278.109375 168.714844 C 277.523438 169.128906 277.113281 169.253906 276.675781 169.492188 C 277.046875 170.507812 279.609375 175.167969 277.621094 175.167969 C 276.476562 175.167969 275.511719 171.859375 275.414062 170.753906 C 273.8125 171.128906 273.699219 171.894531 272.265625 172.015625 C 272.441406 174.125 273.839844 175.953125 274.15625 178.320312 C 275.652344 177.972656 281.5 175.691406 282.34375 174.539062 C 281.367188 173.078125 281.667969 173.867188 279.824219 173.90625 L 279.824219 172.960938 C 280.796875 172.878906 280.417969 172.964844 281.082031 172.644531 L 280.71875 170.765625 C 282.335938 170.390625 282.199219 170.859375 283.203125 170.644531 C 284.214844 170.425781 283.84375 169.878906 285.488281 169.492188 L 285.488281 168.863281 C 284.371094 168.410156 284.421875 166.609375 284.863281 165.710938 C 285.964844 166.003906 285.601562 165.824219 286.101562 166.675781 C 286.136719 166.734375 286.171875 166.820312 286.207031 166.886719 L 286.75 168.230469 C 287.453125 168.054688 289.308594 166.863281 289.117188 168.410156 C 288.902344 170.140625 287.476562 168.6875 288.640625 171.070312 C 290.640625 170.601562 292.453125 168.761719 294.007812 167.589844 C 295.753906 166.273438 297.28125 166.425781 292.644531 170.355469 C 290.519531 172.152344 289.269531 171.472656 289.269531 174.539062 C 289.269531 175.332031 289.898438 176.210938 289.898438 177.375 C 289.898438 178.8125 289.515625 177.132812 289.898438 178.953125 C 290.230469 178.773438 290.550781 178.589844 290.914062 178.390625 C 293.050781 177.230469 293.675781 176.878906 293.675781 174.222656 C 293.675781 172.691406 292.164062 170.4375 293.992188 170.4375 C 295.773438 170.4375 295.664062 172.617188 295.65625 173.792969 C 295.648438 174.507812 295.441406 174.105469 295.734375 175.023438 C 297.578125 174.25 296.019531 173.976562 298.996094 171.667969 L 299.351562 171.394531 C 299.410156 171.355469 299.484375 171.300781 299.539062 171.265625 L 300.558594 170.710938 C 300.75 166.277344 299.175781 165.269531 299.660156 163.1875 C 301.132812 163.308594 300.402344 162.957031 300.957031 164.09375 C 301.90625 166.054688 302.175781 167.691406 302.175781 170.125 C 304.265625 169.949219 304.382812 168.585938 304.382812 166.65625 C 304.382812 165.378906 303.613281 164.75 303.121094 163.816406 C 305.191406 161.273438 306.253906 164.386719 303.261719 157.375 C 301.980469 154.371094 300.613281 154.519531 300.289062 153.414062 C 304.566406 153.480469 304.816406 157.0625 306.046875 160.261719 C 306.5625 161.605469 306.898438 162.066406 306.898438 163.816406 C 305.980469 164.039062 306.445312 163.777344 305.957031 164.449219 C 306.765625 165.730469 306.035156 166.8125 306.730469 168.085938 C 307.585938 167.433594 308.457031 166.949219 309.382812 166.308594 C 310.179688 165.761719 311.746094 164.667969 312.566406 164.449219 C 312.566406 160.113281 312.570312 161.675781 310.730469 161.675781 C 310.6875 161.675781 310.578125 161.652344 310.542969 161.648438 C 310.105469 161.625 309.734375 161.96875 310.519531 160.847656 C 311.34375 159.671875 311.539062 160.804688 311.851562 158.738281 L 312.253906 157.511719 C 315.257812 157.761719 312.652344 158.734375 318.234375 154.988281 L 317.867188 152.476562 C 321.304688 152.445312 319.199219 154.324219 323.378906 151.3125 C 324.597656 150.433594 323.332031 151.011719 324.53125 150.574219 C 324.046875 149.65625 323.617188 149.144531 323.585938 147.738281 C 325.183594 147.738281 325.128906 148.105469 326.421875 149 C 328.078125 148.558594 331.777344 145.324219 333.347656 144.269531 C 332.957031 143.679688 332.824219 143.472656 332.367188 142.730469 C 330.292969 139.363281 327.894531 136.402344 325.066406 133.632812 C 324.324219 132.90625 324.074219 132.820312 324.070312 132.144531 C 325.898438 130.875 327.835938 133.679688 329.988281 136.28125 C 331.386719 137.96875 333.945312 141.242188 334.292969 143.324219 L 337.460938 141.128906 C 338.140625 140.511719 337.863281 140.917969 338.382812 140.171875 C 337.503906 136.539062 334.453125 132.835938 332.402344 129.769531 C 330.867188 130.125 329.414062 131.011719 327.996094 131.34375 C 328.136719 130.054688 328.839844 129.988281 329.878906 129.449219 L 335.273438 126.667969 C 336 126.335938 335.980469 126.3125 336.554688 126.046875 C 337.210938 125.742188 337.503906 125.652344 338.070312 125.355469 C 337.214844 124.1875 336.019531 124.386719 335.867188 122.515625 C 338.03125 122.515625 338.792969 123.382812 340.195312 124.808594 C 341.238281 125.867188 342.679688 127.789062 342.792969 129.136719 Z M 333.761719 147.601562 C 336.082031 149.050781 333.96875 148.6875 339.328125 145.847656 C 339.328125 143.992188 339.371094 142.65625 339.957031 141.433594 C 342.570312 141.652344 340.835938 143.015625 341.535156 144.226562 C 345.308594 143.332031 342.8125 141.078125 344.050781 138.59375 C 345.109375 138.878906 344.710938 138.859375 345.535156 139.449219 C 345.203125 138.273438 344.902344 137.871094 344.683594 137.019531 C 342.6875 138.074219 341.921875 139.082031 340.226562 140.441406 C 339.367188 141.128906 338.976562 141.714844 338.070312 142.382812 C 337.335938 142.921875 336.484375 143.503906 335.863281 143.953125 L 328.980469 149.039062 C 328.171875 149.695312 327.65625 150.085938 326.71875 150.578125 L 327.050781 153.097656 C 329.308594 153.148438 328.148438 153.96875 328.941406 155.621094 C 331.601562 153.835938 331.628906 154.855469 331.773438 153.097656 C 330.65625 153.847656 331.085938 154.234375 329.570312 154.359375 C 329.382812 152.046875 329.980469 152.160156 331.605469 150.726562 C 332.152344 150.242188 332.402344 150.570312 332.402344 149.628906 C 332.402344 148.828125 330.722656 147.632812 332.433594 147.1875 C 333.039062 147.03125 333.265625 147.296875 333.761719 147.601562 Z M 351.863281 139.871094 C 351.574219 141.652344 352.113281 141.039062 352.238281 141.21875 C 352.316406 140.167969 352.527344 140.027344 352.550781 138.910156 C 351.976562 139.335938 352.019531 138.925781 351.863281 139.871094 Z M 345.941406 141.75 C 345.941406 140.148438 346.179688 140.808594 345.3125 140.171875 C 345.335938 141.960938 344.996094 141.242188 345.941406 141.75 Z M 325.160156 152.152344 C 323.703125 152.492188 322.722656 153.390625 321.59375 154.253906 C 320.035156 155.449219 320.4375 155.929688 320.4375 158.773438 C 321.40625 158.261719 321.863281 158.046875 322.835938 157.390625 C 323.652344 156.835938 324.296875 156.167969 325.160156 155.9375 Z M 321.066406 161.296875 C 322.097656 160.613281 324.226562 159.292969 324.53125 158.140625 C 323.71875 158.359375 322.777344 158.996094 322.066406 159.476562 C 320.761719 160.355469 320.777344 159.925781 321.066406 161.296875 Z M 314.457031 162.871094 C 315.503906 162.316406 316.726562 161.554688 317.761719 160.804688 C 319.128906 159.808594 318.550781 159.222656 318.550781 156.882812 C 317.0625 157.28125 315.542969 158.890625 314.082031 159.726562 Z M 314.289062 165.226562 C 313.457031 166.304688 314.285156 165.984375 312.5 166.09375 L 313.511719 166.96875 C 314.027344 166.582031 314.601562 166.183594 315.136719 165.761719 L 317.449219 163.984375 C 318.8125 162.941406 318.832031 163.109375 318.863281 161.609375 C 317.066406 162.816406 315.605469 163.523438 314.289062 165.226562 Z M 301.234375 175.484375 L 307.148438 171.949219 C 307.703125 171.574219 308.109375 171.363281 308.6875 170.96875 L 309.394531 170.414062 C 311.320312 168.773438 311.265625 169.222656 311.53125 167.0625 C 310.328125 167.210938 308.285156 168.929688 307.082031 169.675781 C 303.5 171.894531 305.859375 172.722656 303.121094 172.960938 C 302.90625 172.308594 303.023438 172.4375 302.582031 172.105469 C 301.0625 173.605469 301.773438 173.15625 301.234375 175.484375 Z M 285.476562 171.359375 C 283.496094 172.75 283.777344 172.238281 283.914062 173.589844 C 285.359375 173.472656 286.410156 172.910156 287.105469 171.996094 L 286.433594 170.773438 C 285.890625 171.019531 285.914062 171.050781 285.476562 171.359375 Z M 287.378906 177.058594 C 287.378906 175.703125 287.011719 175.351562 286.75 174.222656 C 285.914062 174.664062 285.382812 175.039062 284.546875 175.484375 C 285.046875 177.328125 285.878906 179.515625 283.285156 178.003906 C 283.285156 179.804688 283.601562 180.1875 283.601562 182.105469 C 284.777344 182.007812 285.105469 181.625 285.835938 181.191406 C 287.660156 180.113281 287.378906 180.644531 287.378906 177.058594 Z M 276.359375 184.625 C 276.359375 187.984375 278.867188 184.441406 281.710938 183.679688 C 281.710938 180.894531 281.257812 179.796875 280.769531 177.691406 C 280.035156 177.75 272.117188 180.917969 271.683594 182.78125 C 271.613281 183.078125 271.636719 183.378906 271.636719 183.679688 C 272.773438 183.585938 273.136719 183.289062 274.15625 183.050781 L 274.15625 180.84375 C 276.625 180.84375 275.230469 180.664062 275.921875 181.289062 C 277.128906 182.375 276.359375 183.664062 276.359375 184.625 Z M 274.15625 184.625 C 271.582031 185.226562 271.953125 185.296875 271.953125 188.726562 C 274.277344 188.53125 273.941406 187.480469 274.089844 185.496094 C 274.113281 185.179688 274.144531 184.984375 274.15625 184.625 Z M 273.210938 190.617188 C 272.488281 190.800781 272.121094 191 271.507812 191.421875 C 270.648438 192.011719 270.714844 192.042969 270.261719 193.019531 C 270.109375 193.34375 270.027344 193.566406 269.878906 193.902344 L 268.804688 196.605469 C 269.8125 196.371094 270.308594 196.035156 271.199219 195.535156 L 273.527344 194.398438 C 272.785156 193.289062 272.542969 191.921875 273.210938 190.617188 Z M 304.382812 217.730469 C 304.128906 218.8125 304.25 219.027344 302.859375 219.011719 C 300.6875 218.988281 294.839844 217.546875 292.1875 217.015625 L 274.117188 213.355469 C 271.941406 212.984375 264.355469 212.324219 263.136719 211.738281 C 263.75 209.4375 265.515625 210.75 269.464844 211.078125 C 273.125 211.382812 280.902344 212.949219 284.679688 213.8125 C 286.453125 214.21875 287.859375 214.417969 289.332031 214.828125 C 291.597656 215.460938 302.128906 217.679688 304.382812 217.730469 Z M 351.921875 216.152344 C 350.535156 216.125 349.847656 215.699219 348.234375 215.433594 C 344.316406 214.789062 342.9375 213.863281 336.839844 213.285156 C 327.753906 212.425781 325.027344 213.632812 316.34375 213.632812 C 315.390625 213.632812 315.277344 213.085938 315.085938 212.371094 C 316.648438 211.621094 325.640625 211.808594 329.167969 211.335938 C 333.957031 210.691406 339.980469 212.007812 345.230469 213.082031 L 348.90625 214.121094 C 352.234375 215.144531 351.855469 215.089844 351.921875 216.152344 Z M 308.476562 223.40625 C 312.136719 223.40625 311.960938 223.273438 315.761719 222.835938 C 320.761719 222.261719 323.058594 222.5625 328.804688 221.378906 C 329.867188 221.160156 330.308594 220.910156 331.457031 220.882812 C 331.183594 222.070312 330.988281 222.117188 329.914062 222.484375 L 321.644531 223.667969 C 318.195312 224.15625 307.523438 225.117188 304.042969 224.710938 L 291.5 221.171875 C 290.394531 220.769531 290.015625 220.703125 289.898438 219.308594 L 294.460938 220.414062 C 299.152344 221.773438 303.308594 223.40625 308.476562 223.40625 Z M 366.40625 182.417969 C 362.003906 182.417969 356.582031 180.148438 352.578125 179.238281 C 348.125 178.226562 350.46875 178.492188 345.335938 177.964844 C 340.480469 177.464844 339.183594 178.636719 337.753906 178.636719 L 333.660156 178.636719 C 332.457031 178.636719 333.546875 178.734375 332.71875 178.320312 C 333.050781 177.488281 332.703125 177.957031 333.585938 177.617188 C 333.835938 177.519531 334.589844 177.398438 334.875 177.34375 C 343.355469 175.726562 347.011719 175.546875 355.820312 178.515625 L 365.269531 181.675781 C 366.773438 182.230469 365.890625 181.304688 366.40625 182.417969 Z M 328.308594 119.046875 C 331.347656 122.359375 332.585938 119.996094 333.976562 119.996094 C 335.179688 119.996094 334.089844 119.898438 334.921875 120.308594 C 334.769531 122.503906 332.601562 121.804688 328.9375 123.761719 C 327.824219 124.355469 327.109375 124.929688 326.042969 125.609375 C 324.59375 126.53125 323.738281 127.351562 322.957031 127.5625 C 323.117188 125.726562 324.308594 124.925781 325.425781 124.042969 C 326.628906 123.09375 328.1875 122.734375 329.253906 121.570312 C 327.324219 120.644531 327.28125 120.046875 325.476562 121.253906 C 324.179688 118.523438 326.023438 120.597656 323.273438 119.40625 C 323.625 117.785156 323.980469 117.9375 325.699219 117.964844 C 327.425781 117.992188 327.195312 117.707031 328.488281 116.707031 C 329.554688 115.886719 332.449219 113.699219 333.660156 113.375 C 334.261719 114.242188 334.703125 114.175781 333.894531 115.132812 C 333.546875 115.542969 332.390625 116.164062 331.953125 116.398438 Z M 344.683594 201.335938 L 344.683594 202.597656 C 341.054688 202.597656 340.019531 202.105469 336.792969 201.667969 C 332.90625 201.144531 327.519531 200.308594 323.65625 199.046875 C 322.382812 198.628906 321.972656 198.210938 321.078125 197.855469 C 320.167969 197.492188 318.703125 197.492188 317.605469 197.238281 C 317.832031 196.390625 317.769531 195.976562 320.753906 195.976562 C 321.796875 195.976562 323.695312 197.238281 325.980469 197.992188 C 327.621094 198.535156 330.28125 199.117188 331.859375 199.355469 Z M 384.980469 154.675781 C 383.792969 155.238281 383.832031 154.953125 382.726562 154.433594 C 381.945312 154.066406 382.960938 154.347656 381.558594 154.003906 C 378.105469 153.15625 374.398438 153.097656 370.8125 153.097656 L 358.832031 154.023438 C 358.238281 154.074219 356.058594 154.316406 355.984375 154.296875 C 354.582031 153.925781 355.515625 152.863281 356.421875 152.578125 C 357.777344 152.148438 361.101562 152.59375 362.816406 152.347656 C 366.882812 151.765625 373.78125 151.472656 377.703125 151.875 L 383.226562 152.964844 C 384.453125 153.292969 384.765625 153.394531 384.980469 154.675781 Z M 350.347656 120.265625 C 350.351562 120.261719 354.757812 118.046875 354.757812 122.199219 C 354.757812 123.421875 354.894531 122.359375 354.339844 123.042969 C 353.066406 122.382812 353.554688 122.558594 352.867188 121.253906 C 351.035156 121.746094 351.363281 122.207031 351.292969 122.832031 C 347.902344 122.832031 348.132812 125.292969 345.3125 125.355469 C 345.902344 123.003906 347.679688 122.894531 348.773438 121.253906 C 346.820312 118.335938 343.265625 117.257812 340.558594 115.609375 C 339.214844 114.789062 339.8125 115.863281 339.644531 114.320312 C 341.070312 113.519531 341.910156 114.355469 343.269531 115.101562 C 349.472656 118.503906 347.082031 118.066406 350.347656 120.265625 Z M 386.242188 166.65625 L 386.242188 167.601562 C 382.878906 167.601562 381.207031 167.253906 378.230469 166.792969 C 373.890625 166.121094 373.351562 165.710938 368.925781 165.710938 C 366.742188 165.710938 363.636719 167.265625 363.570312 164.449219 C 366.585938 164.449219 368.378906 164.132812 371.441406 164.132812 L 382.464844 166.023438 C 383.714844 166.230469 384.96875 166.628906 386.242188 166.65625 Z M 305.957031 195.347656 L 292.0625 195.925781 C 289.617188 196.308594 289.929688 197.195312 288.007812 197.238281 C 287.722656 196.011719 287.671875 195.886719 288.71875 195.125 C 289.386719 194.640625 290.582031 194.085938 291.472656 194.085938 L 304.695312 194.085938 C 305.625 194.085938 305.78125 194.617188 305.957031 195.347656 Z M 397.574219 153.414062 C 396.324219 153.246094 395.785156 152.585938 394.558594 152.019531 C 392.175781 150.921875 386.046875 148.683594 384.035156 148.683594 C 382.519531 148.683594 380.890625 149.679688 380.890625 148.054688 C 380.890625 145.632812 386.023438 147.472656 387.730469 147.835938 C 388.816406 148.066406 389.355469 148.152344 390.210938 148.492188 L 396.601562 151.242188 C 397.734375 151.859375 397.640625 152.011719 397.574219 153.414062 Z M 366.40625 197.550781 C 365.078125 197.523438 360.992188 195.679688 356.601562 195.089844 C 354.417969 194.792969 350.070312 193.761719 348.445312 193.800781 C 346.015625 193.855469 347.097656 194.429688 346.257812 193.363281 C 348.667969 191.769531 351.148438 192.742188 354.261719 193.320312 C 357.523438 193.929688 362.402344 194.695312 365.226562 195.902344 C 366.277344 196.351562 366.332031 196.214844 366.40625 197.550781 Z M 251.902344 158.042969 C 253.449219 157.40625 252.082031 158.597656 253.605469 157.753906 C 253.660156 157.722656 254.125 157.328125 254.320312 157.195312 C 256.960938 157.8125 261.597656 161.265625 263.582031 164.082031 C 265.453125 166.738281 260.917969 163.269531 260.546875 162.941406 C 257.03125 159.820312 258.921875 162.929688 254.492188 160.171875 C 252.992188 159.238281 253.09375 158.960938 251.902344 158.042969 Z M 291.789062 206.066406 C 287.472656 206.066406 285.664062 204.488281 283.914062 204.488281 C 281.882812 204.488281 279.3125 205.128906 277.933594 204.53125 C 278.082031 202.667969 278.824219 203.210938 280.410156 202.898438 C 284.386719 202.117188 285.839844 203.085938 290.421875 204.914062 C 291.714844 205.429688 291.40625 204.632812 291.789062 206.066406 Z M 305.324219 153.414062 C 303.773438 153.285156 303.777344 152.304688 302.863281 151.164062 L 298.535156 146.027344 C 298.488281 145.984375 298.421875 145.917969 298.371094 145.875 C 297.472656 145.050781 296.183594 144.5 295.566406 143.640625 C 297.171875 141.402344 300.316406 145.183594 301.417969 146.605469 L 304.652344 151.25 C 305.191406 152.128906 305.296875 152.054688 305.324219 153.414062 Z M 311.308594 134.8125 L 319.945312 143.839844 C 320.644531 147.183594 313.847656 139.246094 312.476562 138.046875 C 311.925781 137.5625 311.597656 137.445312 311.074219 136.933594 C 310.621094 136.488281 309.503906 135.136719 310.480469 134.691406 C 311.742188 134.121094 311.164062 134.742188 311.308594 134.8125 Z M 350.980469 218.992188 C 350.699219 221.535156 348.679688 219.644531 346.527344 219.351562 C 344.582031 219.085938 342.09375 219.085938 340.589844 218.359375 C 340.996094 216.832031 341.285156 217.097656 343.738281 217.097656 C 345.792969 217.097656 349.140625 218.5625 350.980469 218.992188 Z M 379.945312 181.789062 C 379.417969 182.792969 379.816406 182.570312 376.570312 182.015625 L 369.09375 180.667969 C 365.789062 180.011719 366.113281 180.28125 365.777344 179.121094 C 367.574219 178.742188 370.332031 179.355469 371.855469 179.804688 L 376.722656 180.917969 C 377.628906 181.121094 378.914062 181.550781 379.945312 181.789062 Z M 273.527344 166.65625 C 271.839844 166.203125 272.039062 164.777344 270.597656 162.972656 C 268.742188 160.644531 267.730469 161.183594 268.175781 159.089844 C 269.996094 159.089844 269.625 159.132812 271.890625 161.980469 C 272.769531 163.082031 274.335938 164.964844 273.527344 166.65625 Z M 362.628906 150.261719 C 362.203125 150.871094 362.667969 150.890625 361.367188 150.890625 C 360.882812 150.890625 357.265625 150.421875 356.867188 150.355469 C 351.179688 149.398438 353.484375 148.054688 353.8125 148.054688 L 360.667969 149.386719 C 361.753906 149.546875 362.054688 149.476562 362.628906 150.261719 Z M 354.441406 123.777344 C 354.394531 125.945312 353.792969 125.171875 350.992188 126.636719 C 344.523438 130.019531 346.132812 127.1875 349.773438 125.402344 C 351.105469 124.746094 352.757812 123.816406 354.441406 123.777344 Z M 319.492188 128.507812 L 314.082031 125.417969 C 313.027344 124.867188 313.132812 125.007812 312.566406 124.003906 C 313.90625 122.6875 313.941406 123.316406 316.691406 124.996094 C 319.410156 126.660156 319.894531 126.777344 319.492188 128.507812 Z M 300.601562 201.964844 C 301.816406 202.550781 304.441406 203.226562 306.269531 203.226562 L 306.269531 203.859375 C 304.808594 203.890625 305.148438 204.171875 303.121094 204.171875 C 301.953125 204.171875 301.53125 203.558594 300.257812 203.257812 C 298.816406 202.917969 298.21875 202.96875 298.085938 201.335938 L 299.34375 201.335938 L 299.34375 200.390625 C 300.160156 200.457031 300.597656 200.480469 300.929688 201.023438 C 301.6875 202.257812 300.371094 201.214844 300.601562 201.964844 Z M 339.957031 164.132812 L 339.957031 164.765625 C 339.132812 165.160156 334.675781 164.765625 332.402344 164.765625 L 332.402344 163.503906 C 334.492188 163.015625 339.957031 162.964844 339.957031 164.132812 Z M 312.253906 187.464844 C 310.960938 187.464844 305.230469 186.925781 304.382812 186.519531 C 304.742188 183.824219 308.070312 185.496094 310.441406 186.125 C 311.785156 186.480469 311.933594 186.273438 312.253906 187.464844 Z M 360.421875 202.914062 C 360.085938 204.183594 360.3125 203.871094 356.960938 203.859375 C 355.386719 203.851562 353.8125 203.859375 352.238281 203.859375 C 353.664062 201.21875 357.496094 202.847656 360.421875 202.914062 Z M 266.601562 171.699219 C 265.484375 172.328125 264.378906 171.988281 263.695312 171.140625 C 263.101562 170.402344 262.507812 169.382812 262.507812 168.546875 L 263.414062 167.871094 C 264.773438 168.804688 264.117188 168.769531 264.957031 169.875 C 265.949219 171.175781 266.203125 170.207031 266.601562 171.699219 Z M 259.671875 215.839844 C 259.316406 217.171875 260.109375 216.460938 255.894531 216.46875 C 253.128906 216.476562 252.449219 216.859375 251.488281 215.839844 C 252.71875 215.144531 256.703125 215.839844 259.671875 215.839844 Z M 244.875 212.371094 C 244.875 210.300781 243.792969 211.425781 241.414062 211.425781 C 241.828125 212.660156 241.902344 212.371094 244.875 212.371094 " fill-opacity="1" fill-rule="evenodd"/></g><g fill="#000000" fill-opacity="1"><g transform="translate(28.795618, 211.976996)"><g><path d="M 63.03125 4.28125 C 63.46875 4.539062 63.617188 4.878906 63.484375 5.296875 C 63.347656 5.710938 63.097656 6.019531 62.734375 6.21875 C 60.878906 7.238281 58.945312 8.0625 56.9375 8.6875 C 54.9375 9.320312 52.894531 9.640625 50.8125 9.640625 C 50.613281 9.640625 50.40625 9.640625 50.1875 9.640625 C 49.96875 9.640625 49.757812 9.625 49.5625 9.59375 C 46.445312 9.425781 43.535156 8.617188 40.828125 7.171875 C 38.128906 5.734375 35.65625 3.867188 33.40625 1.578125 C 31.15625 -0.703125 29.132812 -3.234375 27.34375 -6.015625 C 25.550781 -8.796875 23.984375 -11.632812 22.640625 -14.53125 C 21.296875 -17.4375 20.195312 -20.195312 19.34375 -22.8125 C 19.207031 -23.25 19.296875 -23.609375 19.609375 -23.890625 C 19.921875 -24.171875 20.332031 -24.375 20.84375 -24.5 C 21.363281 -24.632812 21.820312 -24.703125 22.21875 -24.703125 C 22.519531 -24.703125 22.71875 -24.6875 22.8125 -24.65625 C 23.78125 -24.425781 24.757812 -24.234375 25.75 -24.078125 C 26.75 -23.929688 27.742188 -23.859375 28.734375 -23.859375 C 29.460938 -23.859375 30.175781 -23.910156 30.875 -24.015625 C 33.320312 -24.347656 35.304688 -25.273438 36.828125 -26.796875 C 38.359375 -28.316406 39.445312 -30.1875 40.09375 -32.40625 C 40.738281 -34.632812 40.929688 -36.941406 40.671875 -39.328125 C 40.367188 -42.335938 39.410156 -44.753906 37.796875 -46.578125 C 36.191406 -48.398438 34.15625 -49.734375 31.6875 -50.578125 C 29.21875 -51.421875 26.539062 -51.863281 23.65625 -51.90625 C 20.644531 -51.863281 17.644531 -51.46875 14.65625 -50.71875 C 11.675781 -49.976562 8.78125 -49.078125 5.96875 -48.015625 C 5.769531 -47.953125 5.53125 -47.878906 5.25 -47.796875 C 4.96875 -47.710938 4.675781 -47.671875 4.375 -47.671875 C 3.78125 -47.671875 3.363281 -47.835938 3.125 -48.171875 C 2.832031 -48.597656 2.84375 -49.003906 3.15625 -49.390625 C 3.46875 -49.773438 3.804688 -50.03125 4.171875 -50.15625 C 7.523438 -51.414062 10.960938 -52.476562 14.484375 -53.34375 C 18.015625 -54.207031 21.570312 -54.640625 25.15625 -54.640625 C 25.550781 -54.640625 25.9375 -54.640625 26.3125 -54.640625 C 26.695312 -54.640625 27.085938 -54.617188 27.484375 -54.578125 C 30.929688 -54.378906 34.003906 -53.597656 36.703125 -52.234375 C 39.410156 -50.878906 41.523438 -48.925781 43.046875 -46.375 C 44.578125 -43.820312 45.273438 -40.675781 45.140625 -36.9375 C 45.003906 -33.625 44.113281 -30.78125 42.46875 -28.40625 C 40.832031 -26.039062 38.671875 -24.21875 35.984375 -22.9375 C 33.304688 -21.664062 30.328125 -21.03125 27.046875 -21.03125 C 26.484375 -21.03125 25.898438 -21.046875 25.296875 -21.078125 C 24.703125 -21.109375 24.09375 -21.175781 23.46875 -21.28125 C 24.226562 -19.125 25.269531 -16.773438 26.59375 -14.234375 C 27.914062 -11.703125 29.472656 -9.191406 31.265625 -6.703125 C 33.054688 -4.222656 35.03125 -1.96875 37.1875 0.0625 C 39.34375 2.101562 41.65625 3.738281 44.125 4.96875 C 46.59375 6.195312 49.148438 6.8125 51.796875 6.8125 C 53.160156 6.8125 54.519531 6.628906 55.875 6.265625 C 57.238281 5.898438 58.613281 5.335938 60 4.578125 C 60.269531 4.441406 60.59375 4.304688 60.96875 4.171875 C 61.351562 4.046875 61.710938 3.984375 62.046875 3.984375 C 62.410156 3.984375 62.738281 4.082031 63.03125 4.28125 Z M 13.328125 -45.828125 C 13.492188 -44.941406 13.632812 -44.050781 13.75 -43.15625 C 13.863281 -42.257812 13.96875 -41.363281 14.0625 -40.46875 C 14.5 -36.320312 14.804688 -31.976562 14.984375 -27.4375 C 15.171875 -22.894531 15.070312 -18.34375 14.6875 -13.78125 C 14.3125 -9.226562 13.492188 -4.867188 12.234375 -0.703125 C 12.128906 -0.335938 11.71875 -0.046875 11 0.171875 C 10.289062 0.390625 9.640625 0.5 9.046875 0.5 C 8.710938 0.5 8.4375 0.457031 8.21875 0.375 C 8.007812 0.289062 7.9375 0.164062 8 0 C 8.5625 -1.925781 9.007812 -3.863281 9.34375 -5.8125 C 9.675781 -7.769531 9.941406 -9.726562 10.140625 -11.6875 C 10.703125 -17.050781 10.898438 -22.523438 10.734375 -28.109375 C 10.566406 -33.691406 10.003906 -39.21875 9.046875 -44.6875 C 8.984375 -44.957031 9.140625 -45.207031 9.515625 -45.4375 C 9.898438 -45.664062 10.363281 -45.851562 10.90625 -46 C 11.457031 -46.15625 11.945312 -46.234375 12.375 -46.234375 C 12.9375 -46.234375 13.253906 -46.097656 13.328125 -45.828125 Z M 13.328125 -45.828125 "/></g></g></g><g fill="#000000" fill-opacity="1"><g transform="translate(70.655649, 211.976996)"><g><path d="M 65.421875 1.734375 C 65.484375 1.203125 65.820312 0.796875 66.4375 0.515625 C 67.050781 0.234375 67.640625 0.09375 68.203125 0.09375 C 68.566406 0.09375 68.921875 0.179688 69.265625 0.359375 C 69.617188 0.546875 69.796875 0.90625 69.796875 1.4375 C 69.460938 2.96875 68.976562 4.503906 68.34375 6.046875 C 67.71875 7.585938 66.90625 9.003906 65.90625 10.296875 C 64.914062 11.585938 63.707031 12.628906 62.28125 13.421875 C 60.863281 14.210938 59.175781 14.609375 57.21875 14.609375 C 55.363281 14.609375 53.648438 14.203125 52.078125 13.390625 C 50.503906 12.585938 49.0625 11.492188 47.75 10.109375 C 46.4375 8.734375 45.265625 7.21875 44.234375 5.5625 C 43.210938 3.90625 42.300781 2.234375 41.5 0.546875 C 40.707031 -1.140625 40.03125 -2.710938 39.46875 -4.171875 C 38.445312 -6.960938 36.75 -9.144531 34.375 -10.71875 C 32.007812 -12.289062 29.050781 -13.078125 25.5 -13.078125 C 24.875 -13.078125 24.226562 -13.039062 23.5625 -12.96875 C 22.894531 -12.90625 22.21875 -12.828125 21.53125 -12.734375 C 20.925781 -11.203125 20.21875 -9.640625 19.40625 -8.046875 C 18.59375 -6.460938 17.65625 -4.988281 16.59375 -3.625 C 15.539062 -2.269531 14.328125 -1.175781 12.953125 -0.34375 C 11.578125 0.476562 10.007812 0.890625 8.25 0.890625 C 6.425781 0.890625 4.691406 0.484375 3.046875 -0.328125 C 1.410156 -1.140625 -0.0820312 -2.140625 -1.4375 -3.328125 C -1.769531 -3.628906 -1.9375 -3.945312 -1.9375 -4.28125 C -1.9375 -4.769531 -1.640625 -5.195312 -1.046875 -5.5625 C -0.453125 -5.925781 0.144531 -6.109375 0.75 -6.109375 C 1.207031 -6.109375 1.585938 -6.007812 1.890625 -5.8125 C 2.847656 -4.988281 3.941406 -4.1875 5.171875 -3.40625 C 6.398438 -2.625 7.609375 -2.234375 8.796875 -2.234375 C 9.890625 -2.234375 10.898438 -2.597656 11.828125 -3.328125 C 12.753906 -4.054688 13.597656 -5.015625 14.359375 -6.203125 C 15.128906 -7.398438 15.816406 -8.675781 16.421875 -10.03125 C 17.035156 -11.394531 17.570312 -12.722656 18.03125 -14.015625 C 18.5 -15.304688 18.882812 -16.414062 19.1875 -17.34375 C 21.113281 -23.082031 22.726562 -28.910156 24.03125 -34.828125 C 25.34375 -40.742188 26.644531 -46.648438 27.9375 -52.546875 C 28.039062 -53.109375 28.375 -53.53125 28.9375 -53.8125 C 29.5 -54.09375 30.03125 -54.234375 30.53125 -54.234375 C 30.894531 -54.234375 31.273438 -54.164062 31.671875 -54.03125 C 32.066406 -53.90625 32.28125 -53.644531 32.3125 -53.25 C 32.582031 -51.550781 32.875 -49.863281 33.1875 -48.1875 C 33.5 -46.519531 33.820312 -44.84375 34.15625 -43.15625 C 35.414062 -36.5625 36.773438 -29.957031 38.234375 -23.34375 C 39.691406 -16.726562 41.597656 -10.273438 43.953125 -3.984375 C 44.347656 -2.890625 44.859375 -1.671875 45.484375 -0.328125 C 46.117188 1.015625 46.859375 2.363281 47.703125 3.71875 C 48.546875 5.082031 49.488281 6.34375 50.53125 7.5 C 51.570312 8.664062 52.722656 9.613281 53.984375 10.34375 C 55.242188 11.070312 56.585938 11.46875 58.015625 11.53125 C 59.140625 11.53125 60.125 11.207031 60.96875 10.5625 C 61.8125 9.914062 62.523438 9.078125 63.109375 8.046875 C 63.691406 7.023438 64.171875 5.945312 64.546875 4.8125 C 64.929688 3.6875 65.222656 2.660156 65.421875 1.734375 Z M 22.21875 -14.359375 C 23.019531 -14.429688 23.816406 -14.484375 24.609375 -14.515625 C 25.398438 -14.546875 26.210938 -14.5625 27.046875 -14.5625 C 28.640625 -14.5625 30.238281 -14.460938 31.84375 -14.265625 C 33.445312 -14.066406 35.015625 -13.6875 36.546875 -13.125 C 36.109375 -14.644531 35.648438 -16.503906 35.171875 -18.703125 C 34.691406 -20.910156 34.210938 -23.28125 33.734375 -25.8125 C 33.253906 -28.351562 32.78125 -30.890625 32.3125 -33.421875 C 31.851562 -35.960938 31.421875 -38.359375 31.015625 -40.609375 C 30.617188 -42.867188 30.273438 -44.789062 29.984375 -46.375 C 29.617188 -44.71875 29.203125 -42.8125 28.734375 -40.65625 C 28.265625 -38.507812 27.773438 -36.234375 27.265625 -33.828125 C 26.753906 -31.421875 26.21875 -29.03125 25.65625 -26.65625 C 25.09375 -24.289062 24.519531 -22.046875 23.9375 -19.921875 C 23.351562 -17.804688 22.78125 -15.953125 22.21875 -14.359375 Z M 22.21875 -14.359375 "/></g></g></g><g fill="#000000" fill-opacity="1"><g transform="translate(113.310972, 211.976996)"><g><path d="M 63.640625 -0.09375 C 63.734375 0.363281 63.539062 0.75 63.0625 1.0625 C 62.582031 1.382812 62.160156 1.578125 61.796875 1.640625 C 61.429688 1.703125 61.046875 1.765625 60.640625 1.828125 C 60.242188 1.898438 59.863281 1.9375 59.5 1.9375 C 58.175781 1.875 57.125 1.476562 56.34375 0.75 C 55.570312 0.0195312 54.984375 -0.878906 54.578125 -1.953125 C 54.179688 -3.035156 53.910156 -4.179688 53.765625 -5.390625 C 53.617188 -6.597656 53.507812 -7.703125 53.4375 -8.703125 C 53.238281 -12.242188 53.25 -15.800781 53.46875 -19.375 C 53.6875 -22.957031 53.894531 -26.523438 54.09375 -30.078125 C 54.125 -30.703125 54.1875 -31.660156 54.28125 -32.953125 C 54.382812 -34.253906 54.476562 -35.710938 54.5625 -37.328125 C 54.644531 -38.953125 54.664062 -40.601562 54.625 -42.28125 C 54.59375 -43.957031 54.453125 -45.523438 54.203125 -46.984375 C 53.960938 -48.441406 53.578125 -49.648438 53.046875 -50.609375 C 52.515625 -51.566406 51.769531 -52.128906 50.8125 -52.296875 C 50.675781 -52.328125 50.53125 -52.34375 50.375 -52.34375 C 50.226562 -52.34375 50.09375 -52.34375 49.96875 -52.34375 C 49.070312 -52.34375 48.234375 -52.128906 47.453125 -51.703125 C 46.671875 -51.273438 45.96875 -50.546875 45.34375 -49.515625 C 44.113281 -47.691406 43.21875 -45.671875 42.65625 -43.453125 C 42.09375 -41.234375 41.59375 -39.0625 41.15625 -36.9375 C 40.53125 -33.789062 39.96875 -30.625 39.46875 -27.4375 C 38.96875 -24.257812 38.4375 -21.097656 37.875 -17.953125 C 37.8125 -17.515625 37.460938 -17.128906 36.828125 -16.796875 C 36.203125 -16.472656 35.59375 -16.3125 35 -16.3125 C 34.601562 -16.3125 34.265625 -16.398438 33.984375 -16.578125 C 33.703125 -16.765625 33.5625 -17.054688 33.5625 -17.453125 C 33.59375 -19.203125 33.566406 -21.1875 33.484375 -23.40625 C 33.398438 -25.632812 33.21875 -27.941406 32.9375 -30.328125 C 32.65625 -32.710938 32.222656 -35.0625 31.640625 -37.375 C 31.054688 -39.695312 30.285156 -41.851562 29.328125 -43.84375 C 28.367188 -45.832031 27.175781 -47.507812 25.75 -48.875 C 23.988281 -50.695312 21.882812 -51.609375 19.4375 -51.609375 C 17.75 -51.609375 16.257812 -51.160156 14.96875 -50.265625 C 13.675781 -49.367188 12.601562 -48.222656 11.75 -46.828125 C 10.90625 -45.429688 10.285156 -43.957031 9.890625 -42.40625 C 9.328125 -39.988281 9.296875 -37.550781 9.796875 -35.09375 C 10.296875 -32.644531 11.207031 -30.394531 12.53125 -28.34375 C 12.789062 -27.9375 12.78125 -27.5625 12.5 -27.21875 C 12.21875 -26.875 11.820312 -26.59375 11.3125 -26.375 C 10.800781 -26.15625 10.296875 -26.046875 9.796875 -26.046875 C 9.160156 -26.046875 8.742188 -26.226562 8.546875 -26.59375 C 6.890625 -29.144531 5.804688 -31.960938 5.296875 -35.046875 C 4.785156 -38.128906 5.09375 -41.128906 6.21875 -44.046875 C 7.007812 -46.128906 8.132812 -47.925781 9.59375 -49.4375 C 11.050781 -50.945312 12.738281 -52.113281 14.65625 -52.9375 C 16.582031 -53.769531 18.640625 -54.1875 20.828125 -54.1875 C 22.484375 -54.1875 24.070312 -53.90625 25.59375 -53.34375 C 27.125 -52.78125 28.503906 -51.882812 29.734375 -50.65625 C 31.117188 -49.332031 32.25 -47.535156 33.125 -45.265625 C 34.007812 -42.992188 34.71875 -40.5 35.25 -37.78125 C 35.78125 -35.0625 36.160156 -32.378906 36.390625 -29.734375 C 36.554688 -31.679688 36.796875 -33.71875 37.109375 -35.84375 C 37.421875 -37.96875 37.828125 -40.046875 38.328125 -42.078125 C 38.828125 -44.117188 39.457031 -45.984375 40.21875 -47.671875 C 40.976562 -49.359375 41.90625 -50.734375 43 -51.796875 C 43.957031 -52.765625 45.164062 -53.550781 46.625 -54.15625 C 48.082031 -54.769531 49.5625 -55.078125 51.0625 -55.078125 C 51.425781 -55.078125 51.789062 -55.0625 52.15625 -55.03125 C 52.519531 -55 52.863281 -54.929688 53.1875 -54.828125 C 54.445312 -54.503906 55.46875 -53.84375 56.25 -52.84375 C 57.03125 -51.851562 57.617188 -50.632812 58.015625 -49.1875 C 58.410156 -47.75 58.675781 -46.203125 58.8125 -44.546875 C 58.945312 -42.890625 58.988281 -41.238281 58.9375 -39.59375 C 58.882812 -37.957031 58.804688 -36.429688 58.703125 -35.015625 C 58.609375 -33.609375 58.546875 -32.441406 58.515625 -31.515625 C 58.316406 -27.941406 58.09375 -24.347656 57.84375 -20.734375 C 57.59375 -17.117188 57.566406 -13.519531 57.765625 -9.9375 C 57.828125 -9.207031 57.882812 -8.328125 57.9375 -7.296875 C 57.988281 -6.273438 58.113281 -5.257812 58.3125 -4.25 C 58.507812 -3.238281 58.816406 -2.394531 59.234375 -1.71875 C 59.648438 -1.039062 60.253906 -0.703125 61.046875 -0.703125 C 61.109375 -0.703125 61.15625 -0.703125 61.1875 -0.703125 C 61.226562 -0.703125 61.265625 -0.703125 61.296875 -0.703125 C 61.460938 -0.734375 61.628906 -0.753906 61.796875 -0.765625 C 61.960938 -0.785156 62.144531 -0.796875 62.34375 -0.796875 C 62.601562 -0.796875 62.863281 -0.742188 63.125 -0.640625 C 63.394531 -0.546875 63.566406 -0.363281 63.640625 -0.09375 Z M 20.921875 -45.984375 C 21.054688 -45.023438 21.148438 -44.046875 21.203125 -43.046875 C 21.253906 -42.054688 21.296875 -41.0625 21.328125 -40.0625 C 21.628906 -33.175781 21.476562 -26.269531 20.875 -19.34375 C 20.539062 -15.394531 20 -11.429688 19.25 -7.453125 C 18.507812 -3.472656 17.410156 0.382812 15.953125 4.125 C 15.828125 4.488281 15.460938 4.757812 14.859375 4.9375 C 14.265625 5.125 13.800781 5.25 13.46875 5.3125 C 13.4375 5.3125 13.328125 5.320312 13.140625 5.34375 C 12.960938 5.363281 12.789062 5.375 12.625 5.375 C 12.363281 5.375 12.125 5.335938 11.90625 5.265625 C 11.6875 5.203125 11.613281 5.070312 11.6875 4.875 C 13.101562 1.226562 14.191406 -2.640625 14.953125 -6.734375 C 15.722656 -10.828125 16.265625 -14.953125 16.578125 -19.109375 C 16.890625 -23.273438 17.0625 -27.296875 17.09375 -31.171875 C 17.09375 -33.421875 17.066406 -35.695312 17.015625 -38 C 16.972656 -40.300781 16.835938 -42.582031 16.609375 -44.84375 C 16.566406 -45.101562 16.738281 -45.347656 17.125 -45.578125 C 17.507812 -45.816406 17.984375 -46 18.546875 -46.125 C 19.109375 -46.257812 19.601562 -46.328125 20.03125 -46.328125 C 20.59375 -46.328125 20.890625 -46.210938 20.921875 -45.984375 Z M 20.921875 -45.984375 "/></g></g></g><g fill="#000000" fill-opacity="1"><g transform="translate(173.462719, 211.976996)"><g><path d="M 39.578125 -53.484375 C 40.066406 -53.453125 40.476562 -53.253906 40.8125 -52.890625 C 41.144531 -52.523438 41.195312 -52.078125 40.96875 -51.546875 C 40.695312 -50.984375 40.304688 -50.628906 39.796875 -50.484375 C 39.285156 -50.335938 38.75 -50.265625 38.1875 -50.265625 C 36.457031 -50.523438 34.6875 -50.6875 32.875 -50.75 C 31.070312 -50.820312 29.273438 -50.859375 27.484375 -50.859375 C 26.992188 -50.859375 26.5 -50.859375 26 -50.859375 C 25.5 -50.859375 25.003906 -50.859375 24.515625 -50.859375 C 24.578125 -49.535156 24.625 -48.191406 24.65625 -46.828125 C 24.6875 -45.472656 24.71875 -44.113281 24.75 -42.75 C 24.914062 -35.789062 24.941406 -28.8125 24.828125 -21.8125 C 24.710938 -14.820312 24.34375 -7.863281 23.71875 -0.9375 C 23.675781 -0.539062 23.320312 -0.203125 22.65625 0.078125 C 22 0.359375 21.359375 0.5 20.734375 0.5 C 20.367188 0.5 20.0625 0.429688 19.8125 0.296875 C 19.5625 0.160156 19.453125 -0.0195312 19.484375 -0.25 C 19.617188 -2.039062 19.742188 -3.820312 19.859375 -5.59375 C 19.972656 -7.363281 20.066406 -9.144531 20.140625 -10.9375 C 20.398438 -17.5625 20.5625 -24.203125 20.625 -30.859375 C 20.695312 -37.523438 20.535156 -44.15625 20.140625 -50.75 C 17.816406 -50.6875 15.460938 -50.578125 13.078125 -50.421875 C 10.691406 -50.273438 8.304688 -49.988281 5.921875 -49.5625 C 5.785156 -49.53125 5.660156 -49.515625 5.546875 -49.515625 C 5.429688 -49.515625 5.289062 -49.515625 5.125 -49.515625 C 4.726562 -49.515625 4.351562 -49.578125 4 -49.703125 C 3.65625 -49.835938 3.429688 -50.109375 3.328125 -50.515625 C 3.191406 -51.003906 3.335938 -51.472656 3.765625 -51.921875 C 4.203125 -52.367188 4.640625 -52.609375 5.078125 -52.640625 C 8.878906 -53.203125 12.6875 -53.597656 16.5 -53.828125 C 20.3125 -54.066406 24.125 -54.1875 27.9375 -54.1875 C 29.894531 -54.1875 31.84375 -54.132812 33.78125 -54.03125 C 35.71875 -53.9375 37.648438 -53.753906 39.578125 -53.484375 Z M 39.578125 -53.484375 "/></g></g></g></svg>